<svg id="Layer_1" data-name="Layer 1" xmlns="http://www.w3.org/2000/svg" viewBox="0 0 1800 900"><defs><style>.cls-1{fill:#9480b8;}.cls-2{fill:#fff;}.cls-3{fill:#523c64;}</style></defs><title>ezmap</title><rect class="cls-1" width="1800" height="900"/><path class="cls-2" d="M968.8,558.89c28.25-10.51,57.19-24.24,83.39-41.49,0,0,75.84-83.11,149.66-82.09l111.83,4.28,5.36,27.34s-44.39-1.21-116.19-4.25c0,0-49.55-2-130.7,76-35.86,34.51-99.23,52.52-137.28,57.73,0,0-57.64,8.11-130.45,6.08l-349.89-15.2S390.84,582.26,315,620.78c0,0-66.74,20.27-147.64,24.32L0,650.25V614.34s212.87,3.4,296.8-21.94c0,0,91-36.49,158.76-33.45l322.62,11.41S903.62,583.15,968.8,558.89Z"/><polygon class="cls-3" points="569 176 565 364 1305 378 1244 225 1018 219 908 207 697 182 569 176"/><path class="cls-2" d="M0,312.89S180.51,166.72,296.8,166.72H550.62s182,0,385.28,39.53c0,0,187.08,11.15,330.67,8.11L1800,219.42v16.37s-597.13-1.16-642.64-1.16c-29.37,0-119.65-.25-216.37-8.83-53.13-4.71-112.45-19.23-154.76-24.62,0,0-122.36-12.16-216.4-15.2l-267,1s-21.09-.45-49.86,7.69c-30.32,8.58-69.16,22.21-100.81,42L0,337.21Z"/><path class="cls-2" d="M568.74,0,542.53,593.41S518.44,871.11,508.24,900h47.38s19.27-354.22,18.26-381.59S581.87,0,581.87,0Z"/><path class="cls-2" d="M1431.23,900s-80.72-247.8-93.87-322.8l-25.28-147L1148.79,0h12.33l129.72,309.63s60.67,141.89,67.75,206.76c0,0,23.33,147,118.86,383.61Z"/><polygon class="cls-2" points="0 341.58 1289.67 371.18 1295.43 386.38 0.03 361.9 0 341.58"/></svg>