<svg id="Layer_1" data-name="Layer 1" xmlns="http://www.w3.org/2000/svg" viewBox="0 0 3000 1000"><defs><style>.cls-1{fill:#fff;}</style></defs><title>white</title><path class="cls-1" d="M2997,716.5H2713.45v-89h28.12l-59.51-48.62.94-14.2h-20.7L2617.38,529l-131.23,98.42H2519v89H2312.74V539.07l11.72-1v-7.8l-11.72-.77v-6.23H2169.79v6.45l-11.72.77v7.58l11.72,1V716.5H2031.54V475.24l9.37-2.41-9.37-17.61H1888.59l-9.37,17.27,9.37,2.08v76.69h-45.7s-1.17-15.19-22.26-15.19c-11.72,0-11.72-4.69-11.72-4.69s0-11.72-11.72-11.72-11.72,11.72-11.72,11.72,0,4.69-14.06,4.69-16.4,15.19-16.4,15.19h-42.18V476.39l9.37-2.82-9.37-18.35H1567.55l-9.37,18.12,9.37,3V716.5h-210.9V611.4h51.55l-80.65-41.07-32.71-16.66-55.36-28.2-56.29,30-33.45,17.85-13.26,7.07-65.73,35.07h51.55v101l-147.63-.34V704.78L963,704.32v-8.91l-11.72-.76v-7.23l-14.06-.2V464H822l-.62-7H799.62v7H775.5V716.5H660.67v-90h21.09l-98.42-81.24-53.9,43V573.56l-16.54.05-1.18,28.06-31.5,24.82h21.09v90H358.38V557.06l11.72-2.63-11.72-15.77H210.75L196.69,557.5l14.06,1v158H-2.5L-3,1000H3000Z"/></svg>